<svg xmlns="http://www.w3.org/2000/svg" width="298" height="100" viewBox="0 0 298 100" fill="none"><g clip-path="url(#clip0)"><path d="M30.8204 41.2382H25.9694C25.264 41.2382 24.6883 41.8139 24.6883 42.5193V43.3655C22.0669 41.4746 18.9513 40.5292 15.3416 40.5292C11.0871 40.5292 7.46645 42.087 4.47975 45.2028C1.49305 48.3184 0 52.0891 0 56.5157C0 60.9419 1.49305 64.7021 4.47975 67.7963C7.46645 70.8903 11.0871 72.4375 15.3416 72.4375C18.9513 72.4375 22.0669 71.492 24.6883 69.6012V70.4473C24.6883 71.1528 25.264 71.7285 25.9694 71.7285H30.8204C31.5258 71.7285 32.1012 71.1528 32.1012 70.4473V42.5196C32.1012 41.8142 31.5258 41.2385 30.8204 41.2385V41.2382ZM16.4375 65.9912C13.8589 65.9912 11.7104 65.0564 9.99152 63.1871C8.27238 61.3176 7.41296 59.0937 7.41296 56.5154C7.41296 53.9368 8.27238 51.7023 9.99152 49.8114C11.7104 47.9206 13.8589 46.9749 16.4375 46.9749C19.8565 46.9749 22.5264 48.2983 24.4445 50.9442C24.6103 51.1724 24.6883 51.4147 24.6883 51.6964V61.2694C24.6883 61.5513 24.61 61.7934 24.4442 62.0215C22.5258 64.6672 19.8565 65.9906 16.4372 65.9906L16.4375 65.9912ZM67.4764 41.2382H62.6255C61.9201 41.2382 61.3443 41.8139 61.3443 42.5193V42.9145C58.7229 41.0236 55.5858 40.0779 51.9333 40.0779C47.6359 40.0779 44.0155 41.5497 41.0717 44.4935C38.1281 47.4374 36.6561 51.1653 36.6561 55.6775C36.6561 59.7169 38.1491 63.2409 41.1358 66.2492C44.1225 69.2572 47.7216 70.7612 51.933 70.7612C55.5855 70.7612 58.7226 69.816 61.3441 67.9249V71.7282C61.3441 74.3924 60.6028 76.4659 59.1201 77.9483C57.6377 79.431 55.6931 80.1722 53.2865 80.1722C51.0088 80.1722 49.1395 79.635 47.6784 78.5607C46.4824 77.6812 45.6889 76.5711 45.2993 75.2303C45.138 74.6747 44.648 74.3064 44.0693 74.3064H39.0384C38.6406 74.3064 38.2984 74.469 38.0466 74.7766C37.7951 75.0846 37.7037 75.4522 37.7826 75.842C38.3918 78.8497 39.9504 81.3677 42.4569 83.3954C45.3791 85.7585 48.9888 86.9406 53.2862 86.9406C57.8845 86.9406 61.6124 85.5761 64.4699 82.8475C67.3278 80.1185 68.7567 76.4121 68.7567 71.7282V42.5193C68.7567 41.8139 68.181 41.2382 67.4756 41.2382H67.4764ZM53.0291 64.3152C50.4937 64.3152 48.3664 63.4236 46.6476 61.64C44.9284 59.8564 44.069 57.8689 44.069 55.6772C44.069 53.013 44.9072 50.8103 46.5832 49.0699C48.2591 47.3298 50.4077 46.4594 53.0291 46.4594C56.4505 46.4594 59.1408 47.8041 61.0993 50.4929C61.266 50.7214 61.3446 50.9646 61.3446 51.2474V59.5937C61.3446 59.8756 61.2663 60.118 61.1005 60.3461C59.1801 62.9924 56.4896 64.3152 53.0291 64.3152ZM80.9269 41.2382H76.0116C75.3061 41.2382 74.7304 41.8139 74.7304 42.5193V70.447C74.7304 71.1525 75.3061 71.7282 76.0116 71.7282H80.9269C81.6324 71.7282 82.2078 71.1525 82.2078 70.447V53.2441C82.2078 52.922 82.3118 52.6444 82.5234 52.4018C84.8984 49.679 88.1014 48.1304 92.1316 47.7583C92.7927 47.6975 93.2949 47.1472 93.2949 46.4831V41.9832C93.2949 41.6144 93.1571 41.2976 92.887 41.0461C92.6175 40.7949 92.2912 40.6796 91.9236 40.7053C88.0287 40.9799 84.7893 42.4466 82.2075 45.1059V42.5193C82.2075 41.8139 81.6321 41.2382 80.9266 41.2382H80.9269ZM100.815 34.6634C102.104 34.6634 103.2 34.2337 104.103 33.3742C105.005 32.5145 105.456 31.4618 105.456 30.2155C105.456 28.9264 105.005 27.8415 104.103 26.9602C103.2 26.0792 102.104 25.6389 100.815 25.6389C99.526 25.6389 98.4301 26.0792 97.5275 26.9602C96.6253 27.8412 96.174 28.9264 96.174 30.2155C96.174 31.4618 96.6253 32.5145 97.5275 33.3742C98.4301 34.2337 99.526 34.6634 100.815 34.6634ZM103.273 41.2382H98.4218C97.7164 41.2382 97.1407 41.8139 97.1407 42.5193V70.447C97.1407 71.1525 97.7164 71.7282 98.4218 71.7282H103.273C103.978 71.7282 104.554 71.1525 104.554 70.447V42.5193C104.554 41.8139 103.978 41.2382 103.273 41.2382ZM125.224 65.7332C122.646 65.7332 120.54 64.8525 118.907 63.0905C117.274 61.3288 116.457 59.1371 116.457 56.5157C116.457 53.8943 117.274 51.7026 118.907 49.9406C120.54 48.1786 122.646 47.2979 125.224 47.2979C127.115 47.2979 128.727 47.7811 130.059 48.7481C131.148 49.5384 131.906 50.5517 132.334 51.7868C132.516 52.3117 132.989 52.6483 133.545 52.6483H138.636C139.043 52.6483 139.394 52.4778 139.645 52.1571C139.896 51.8364 139.978 51.4555 139.88 51.0604C139.177 48.2075 137.633 45.8252 135.248 43.9134C132.433 41.6573 129.091 40.5292 125.224 40.5292C120.626 40.5292 116.779 42.0545 113.686 45.1059C110.591 48.157 109.045 51.9603 109.045 56.5154C109.045 61.0277 110.592 64.8093 113.686 67.8602C116.779 70.9113 120.626 72.4369 125.224 72.4369C129.134 72.4369 132.487 71.3088 135.28 69.0527C137.647 67.1408 139.181 64.7579 139.881 61.9048C139.978 61.5097 139.896 61.129 139.645 60.8087C139.394 60.4886 139.044 60.3184 138.637 60.3184H133.545C132.989 60.3184 132.517 60.6556 132.335 61.1807C131.906 62.419 131.147 63.4425 130.059 64.2502C128.727 65.2385 127.115 65.7326 125.224 65.7326V65.7332ZM158.915 40.5292C154.274 40.5292 150.406 42.0441 147.312 45.0737C144.218 48.1035 142.671 51.9174 142.671 56.5157C142.671 61.1568 144.218 65.0136 147.312 68.0863C150.406 71.159 154.274 72.6952 158.915 72.6952C163.513 72.6952 167.359 71.1587 170.453 68.0863C173.547 65.0139 175.095 61.1568 175.095 56.5157C175.095 51.9174 173.558 48.1035 170.486 45.0737C167.413 42.0441 163.556 40.5292 158.915 40.5292ZM158.915 65.9265C156.336 65.9265 154.22 65.0242 152.566 63.2191C150.911 61.4142 150.084 59.1797 150.084 56.5154C150.084 53.894 150.901 51.7023 152.534 49.9403C154.166 48.1783 156.294 47.2976 158.915 47.2976C161.493 47.2976 163.599 48.1783 165.232 49.9403C166.865 51.702 167.682 53.8937 167.682 56.5154C167.682 59.1797 166.865 61.4142 165.232 63.2191C163.599 65.0239 161.493 65.9265 158.915 65.9265ZM185.008 41.2382H180.093C179.387 41.2382 178.812 41.8139 178.812 42.5193V70.447C178.812 71.1525 179.387 71.7282 180.093 71.7282H185.008C185.713 71.7282 186.289 71.1525 186.289 70.447V53.2441C186.289 52.922 186.393 52.6444 186.605 52.4018C188.98 49.679 192.183 48.1304 196.213 47.7583C196.874 47.6975 197.376 47.1472 197.376 46.4831V41.9832C197.376 41.6144 197.239 41.2976 196.968 41.0461C196.699 40.7949 196.373 40.6796 196.005 40.7053C192.11 40.9799 188.871 42.4466 186.289 45.1059V42.5193C186.289 41.8139 185.713 41.2382 185.008 41.2382H185.008ZM217.466 40.5292C213.856 40.5292 210.762 41.4743 208.184 43.3655V42.5193C208.184 41.8139 207.608 41.2382 206.903 41.2382H201.988C201.282 41.2382 200.706 41.8139 200.706 42.5193V85.7239C200.706 86.4294 201.282 87.0051 201.988 87.0051H206.903C207.608 87.0051 208.184 86.4294 208.184 85.7239V69.6006C210.762 71.4914 213.856 72.4369 217.466 72.4369C221.721 72.4369 225.341 70.8897 228.328 67.7957C231.315 64.7018 232.808 60.9414 232.808 56.5151C232.808 52.0885 231.315 48.3178 228.328 45.2022C225.341 42.0864 221.721 40.5286 217.466 40.5286V40.5292ZM216.37 65.9912C212.995 65.9912 210.349 64.6905 208.433 62.0889C208.264 61.8593 208.183 61.6143 208.183 61.3288V51.6373C208.183 51.3521 208.264 51.1071 208.433 50.8774C210.349 48.2758 212.995 46.9752 216.37 46.9752C218.949 46.9752 221.097 47.9099 222.816 49.7795C224.535 51.6488 225.395 53.894 225.395 56.5157C225.395 59.094 224.535 61.3179 222.816 63.1874C221.097 65.0567 218.949 65.9915 216.37 65.9915V65.9912Z" fill="#5C4E2F"></path><path fill-rule="evenodd" clip-rule="evenodd" d="M297.866 44.1734C296.338 45.3283 294.955 46.3571 294.154 48.2524C292.254 48.8824 291.116 50.83 286.889 53.283C282.512 55.8234 274.335 55.9886 267.58 58.0577C256.371 61.4906 258.566 73.3523 255.28 81.8727C252.873 87.557 250.241 95.4845 247.51 99.9997C244.844 99.896 242.043 98.1171 242.69 94.8633C242.961 93.5053 244.979 89.2386 245.658 87.763C250.647 76.9121 253.479 64.1972 254.528 55.3881C252.135 33.5175 250.054 49.3009 242.279 38.4411C242.107 38.1562 240.561 35.7449 240.519 35.7098C238.879 34.3358 239.174 35.7319 237.442 34.2962C234.314 31.7038 238.457 32.0696 231.652 30.1463C231.1 28.0181 229.039 27.777 227.125 24.8044C226.054 23.1415 224.994 20.3389 222.691 18.7601C222.74 14.7116 221.024 15.855 224.217 11.6199C226.01 9.24324 228.44 8.42371 231.896 8.66783C247.509 10.7762 255.33 28.4487 257.538 43.6027C259.153 41.5874 260.577 39.7731 260.74 39.3848C258.559 34.7179 258.494 34.2664 260.026 26.3729L263.76 13.6701C264.713 11.0584 268.676 5.94179 270.45 4.18571C273.186 1.47563 275.163 0.0978407 279.464 0.00267775C283.035 -0.0756396 283.567 1.5637 284.247 4.95706C285.3 10.2173 281.261 12.3097 282.013 15.1144L277.983 21.923C275.756 28.8238 266.697 38.1471 260.418 45.9543C259.389 47.2342 258.706 48.5612 258.144 49.8308C258.256 52.1998 258.219 54.4258 258.041 56.4213C262.582 54.3493 257.568 50.2103 261.168 49.2717L260.378 56.9938C263.027 56.7372 266.026 50.0891 268.234 47.4606C269.612 45.821 270.638 44.763 272.477 42.6478C275.521 39.1475 285.984 34.1579 290.858 34.1765C297.563 34.2019 297.974 38.4893 297.865 44.1728L297.866 44.1734ZM268.89 14.184C270.324 11.2848 274.234 4.98839 277.357 5.21181C277.538 6.34963 279.336 8.42578 278.85 10.3802C276.818 18.545 268.004 31.3825 265.194 32.6648C263.097 30.2808 265.523 27.4064 265.875 24.4398C266.221 21.5255 267.691 16.6101 268.89 14.1843V14.184ZM270.701 54.4456C275.948 52.579 291.443 44.7579 292.253 39.6549C286.991 39.8254 280.989 42.2128 278.099 44.5531C275.417 46.7233 270.696 51.1607 270.701 54.4456H270.701ZM249.115 37.3642C249.001 34.1549 249.115 35.6255 247.577 33.7267C245.771 31.4966 246.952 32.3214 246.183 29.9143L242.321 23.7438C241.114 21.9682 241.296 22.4942 239.741 21.2255C238.036 19.8335 234.197 12.0573 231.487 14.8404C228.871 17.5266 244.752 34.7983 245.438 35.3102C246.181 35.8643 248.502 36.8532 249.115 37.3642Z" fill="#E8C545"></path></g><defs><clipPath id="clip0"><rect width="297.879" height="100" fill="white"></rect></clipPath></defs></svg>